<?xml version="1.0" encoding="UTF-8"?>
<svg width="1600px" height="397px" viewBox="0 0 1600 397" version="1.1" xmlns="http://www.w3.org/2000/svg" xmlns:xlink="http://www.w3.org/1999/xlink">
    <!-- Generator: Sketch 64 (93537) - https://sketch.com -->
    <title>Slice 1</title>
    <desc>Created with Sketch.</desc>
    <defs>
        <linearGradient x1="16.3146063%" y1="100%" x2="78.4830243%" y2="100%" id="linearGradient-1">
            <stop stop-color="#000000" stop-opacity="0.5" offset="0%"></stop>
            <stop stop-color="#1C1C1C" stop-opacity="0.5" offset="38.5015143%"></stop>
            <stop stop-color="#3A291D" stop-opacity="0.1" offset="96.447424%"></stop>
            <stop stop-color="#AA581F" offset="100%"></stop>
        </linearGradient>
        <path d="M189.554816,366.579634 C198.224683,366.579634 207.321475,366.055967 216.845192,365.008632 C226.36891,363.961297 236.253872,362.390294 246.500078,360.295624 L246.500078,360.295624 L246.500078,343.800098 C239.800635,345.240184 233.331076,346.320248 227.091399,347.040291 C220.851722,347.760334 214.710566,348.120355 208.667932,348.120355 C190.145943,348.120355 176.123091,344.16012 166.599373,336.239649 C157.075656,328.319178 151.985393,316.373013 151.328585,300.401154 C186.008052,294.640812 213.42979,279.258079 233.593799,254.252956 C253.757807,229.247832 263.839812,197.958699 263.839812,160.385556 C263.839812,138.522438 260.293048,118.557614 253.19952,100.491086 C246.105993,82.4245569 235.662744,66.8454488 221.869774,53.7537613 C209.784505,42.3639931 196.122897,33.6907502 180.884949,27.7340323 C165.647001,21.7773145 149.358161,18.7989556 132.018427,18.7989556 C114.678693,18.7989556 98.422693,21.7445853 83.250426,27.6358447 C68.078159,33.5271041 54.449391,42.2330763 42.3641221,53.7537613 C28.4397905,66.8454488 17.8980206,82.3918277 10.7388123,100.392898 C3.57960411,118.393968 0,138.391521 0,160.385556 C0,198.220533 10.1476851,229.706041 30.4430552,254.842082 C50.7384253,279.978122 78.225844,295.164479 112.905311,300.401154 C112.905311,322.657023 119.24351,339.250737 131.919906,350.182296 C144.596302,361.113855 163.807939,366.579634 189.554816,366.579634 Z M132.017778,280.104439 C105.13541,280.104439 83.6360402,269.30865 67.5196689,247.717074 C51.4032976,226.125498 43.3451119,197.130163 43.3451119,160.73107 C43.3451119,123.94059 51.3054249,94.8474083 67.2260508,73.4515259 C83.1466767,52.0556435 104.743919,41.3577023 132.017778,41.3577023 C158.900147,41.3577023 180.366892,52.0882592 196.418015,73.5493729 C212.469138,95.0104867 220.4947,124.071053 220.4947,160.73107 C220.4947,197.130163 212.469138,226.125498 196.418015,247.717074 C180.366892,269.30865 158.900147,280.104439 132.017778,280.104439 Z M370.867315,300.78329 C380.430094,300.78329 390.54961,298.626723 401.225864,294.313591 C411.902117,290.000458 423.528098,283.334708 436.103808,274.316339 L436.103808,274.316339 L436.103808,296.86226 L495.641932,296.86226 L495.641932,282.35445 L476.778368,280.393935 L469.508036,273.924236 L469.508036,99.6344648 L454.18139,99.6344648 L407.415471,114.534378 L407.415471,127.081673 L436.103808,127.081673 L436.103808,263.141404 C427.720001,267.193135 419.696437,270.199258 412.033114,272.159773 C404.369791,274.120288 396.804716,275.100545 389.337888,275.100545 C375.976197,275.100545 366.151424,271.669644 359.86357,264.807842 C353.575715,257.94604 350.431788,247.195884 350.431788,232.557373 L350.431788,232.557373 L350.431788,99.6344648 L335.105142,99.6344648 L288.339223,114.534378 L288.339223,127.081673 L317.02756,127.081673 L317.02756,239.419175 C317.02756,259.285725 321.645203,274.479715 330.880489,285.001145 C340.115776,295.522575 353.444718,300.78329 370.867315,300.78329 Z M575.287207,298.903394 C584.699737,298.903394 594.798597,296.786976 605.583787,292.554139 C616.368977,288.321302 628.232687,281.776686 641.174915,272.920289 L641.174915,272.920289 L646.469463,296.168331 L702.944641,296.168331 L702.944641,281.711565 L681.766449,279.757948 L674.903146,273.311012 L674.903146,157.266165 C674.903146,137.07879 670.131517,122.426663 660.588257,113.309783 C651.044998,104.192904 635.749637,99.6344648 614.702175,99.6344648 C590.778662,99.6344648 571.267273,103.932422 556.168006,112.528337 C541.06874,121.124251 533.519107,131.934265 533.519107,144.958378 C533.519107,149.647059 534.401532,152.870527 536.166381,154.628782 C537.93123,156.387037 541.232152,157.266165 546.069146,157.266165 L546.069146,157.266165 L573.718452,157.266165 L573.718452,123.663953 C579.078365,121.580095 584.242183,120.017202 589.209907,118.975273 C594.177631,117.933344 599.21072,117.412379 604.309174,117.412379 C617.90505,117.412379 627.448309,120.668407 632.938951,127.180464 C638.429594,133.69252 641.174915,145.349102 641.174915,162.150207 L641.174915,162.150207 L641.174915,174.848718 C591.105486,186.830902 559.044057,197.706036 544.990627,207.474121 C530.937198,217.242205 523.910483,230.657042 523.910483,247.71863 C523.910483,263.087083 528.584065,275.459991 537.93123,284.837352 C547.278395,294.214714 559.730387,298.903394 575.287207,298.903394 Z M592.250945,276.344648 C582.332155,276.344648 574.430186,273.386475 568.545038,267.47013 C562.659889,261.553784 559.717314,253.589473 559.717314,243.577196 C559.717314,231.094358 565.040398,221.017066 575.686566,213.345322 C586.332734,205.673577 608.650011,197.221655 642.638398,187.989556 L642.638398,187.989556 L642.638398,258.400567 C631.926105,264.381927 622.437129,268.867947 614.171471,271.858627 C605.905813,274.849307 598.598971,276.344648 592.250945,276.344648 Z M811.702173,295.143603 L811.702173,280.623933 L792.489096,278.661815 L785.627283,272.186827 L785.627283,137.585557 C794.253563,133.138091 802.291687,129.835193 809.741655,127.676863 C817.191624,125.518534 824.118788,124.439369 830.523147,124.439369 C845.161682,124.439369 855.585103,127.578757 861.79341,133.857534 C868.001718,140.13631 871.105871,150.797149 871.105871,165.840051 L871.105871,165.840051 L871.105871,272.186827 L864.244058,278.661815 L845.030981,280.623933 L845.030981,295.143603 L932.862191,295.143603 L932.862191,280.623933 L911.296492,278.661815 L904.434679,272.186827 L904.434679,158.972639 C904.434679,139.089847 899.794786,123.916138 890.515,113.45151 C881.235215,102.986883 867.838341,97.7545692 850.32438,97.7545692 C842.874411,97.7545692 834.248131,99.553177 824.445541,103.150393 C814.642951,106.747608 801.703531,112.993683 785.627283,121.888616 L785.627283,121.888616 L785.627283,99.9128986 L770.335242,99.9128986 L723.674912,114.236357 L723.674912,126.79391 L752.298476,126.79391 L752.298476,272.186827 L745.436662,278.661815 L723.674912,280.623933 L723.674912,295.143603 L811.702173,295.143603 Z M1017.33473,297.023499 C1025.6256,297.023499 1034.24548,296.273608 1043.19436,294.773827 C1052.14324,293.274045 1061.22372,291.089581 1070.43581,288.220434 L1070.43581,288.220434 L1070.43581,273.353037 C1065.43496,274.526779 1060.59862,275.374481 1055.92678,275.896145 C1051.25493,276.417808 1046.74759,276.678639 1042.40475,276.678639 C1029.77104,276.678639 1021.01956,273.71168 1016.15032,267.777763 C1011.28107,261.843846 1008.84645,250.204239 1008.84645,232.858942 L1008.84645,232.858942 L1008.84645,127.222171 L1070.43581,127.222171 L1070.43581,108.4423 L1008.84645,108.4423 L1008.84645,65.7963446 L993.843918,65.7963446 L976.472561,103.160462 L949.823322,114.702257 L949.823322,127.222171 L975.288151,127.222171 L975.288151,256.529403 C975.288151,271.918464 978.413679,282.514745 984.664735,288.318246 C990.915791,294.121748 1001.80579,297.023499 1017.33473,297.023499 Z M1277.73852,295.143603 L1277.73852,222.16562 L1256.9679,222.16562 L1250.10968,270.295871 L1244.42715,276.752369 L1153.70268,276.752369 L1153.70268,50.3836638 L1160.5609,44.7097723 L1183.48696,42.3619551 L1183.48696,26.3185379 L1085.51237,26.3185379 L1085.51237,42.3619551 L1110.78981,44.7097723 L1117.64803,50.3836638 L1117.64803,271.078477 L1110.78981,276.752369 L1085.51237,278.708883 L1085.51237,295.143603 L1277.73852,295.143603 Z M1346.42593,58.2767624 C1353.0524,58.2767624 1358.65178,56.0198256 1363.22405,51.5059521 C1367.79632,46.9920786 1370.08245,41.4824977 1370.08245,34.9772094 C1370.08245,28.4719211 1367.79632,22.8959596 1363.22405,18.2493251 C1358.65178,13.6026906 1353.0524,11.2793734 1346.42593,11.2793734 C1339.93198,11.2793734 1334.39887,13.5695004 1329.8266,18.1497544 C1325.25433,22.7300084 1322.9682,28.3391601 1322.9682,34.9772094 C1322.9682,41.4824977 1325.25433,46.9920786 1329.8266,51.5059521 C1334.39887,56.0198256 1339.93198,58.2767624 1346.42593,58.2767624 Z M1388.92815,297.023499 L1388.92815,282.483121 L1367.29656,280.518205 L1360.41379,274.033982 L1360.41379,101.51436 L1344.68172,101.51436 L1298.46879,115.858247 L1298.46879,128.433709 L1326.58985,128.433709 L1326.58985,274.033982 L1319.70707,280.518205 L1298.46879,282.483121 L1298.46879,297.023499 L1388.92815,297.023499 Z M1483.20859,295.143603 C1521.61475,295.143603 1550.68152,286.232499 1570.40891,268.410291 C1590.1363,250.588082 1600,224.31175 1600,189.581293 C1600,162.423642 1592.65957,140.390692 1577.97872,123.482443 C1563.29787,106.574194 1544.0948,98.1200698 1520.36949,98.1200698 C1511.71828,98.1200698 1502.83768,99.2951604 1493.72768,101.645342 C1484.61769,103.995523 1475.08169,107.520795 1465.11969,112.221158 L1465.11969,112.221158 L1465.11969,0 L1449.78344,0 L1400.23557,14.2969363 L1400.23557,26.8312366 L1431.3013,26.8312366 L1431.3013,295.143603 L1483.20859,295.143603 Z M1486.37018,278.224543 C1483.24675,278.224543 1479.8305,278.191849 1476.12143,278.126462 C1472.41235,278.061074 1468.47553,277.962992 1464.31095,277.832217 L1464.31095,277.832217 L1464.31095,126.786695 C1471.33867,124.563515 1477.78075,122.928823 1483.63718,121.88262 C1489.49362,120.836417 1494.76441,120.313316 1499.44955,120.313316 C1519.62171,120.313316 1535.14126,127.048246 1546.00819,140.518106 C1556.87513,153.987967 1562.3086,173.211942 1562.3086,198.190033 C1562.3086,225.78363 1556.19188,246.021115 1543.95844,258.902486 C1531.725,271.783857 1512.52892,278.224543 1486.37018,278.224543 Z" id="path-2"></path>
    </defs>
    <g id="Page-1" stroke="none" stroke-width="1" fill="none" fill-rule="evenodd">
        <g id="Group">
            <g id="QuantLib" fill-rule="nonzero">
                <use fill="#AA581F" xlink:href="#path-2"></use>
                <use fill="url(#linearGradient-1)" xlink:href="#path-2"></use>
            </g>
            <text id="Rust" font-family="MenloForPowerline-Regular, Menlo for Powerline" font-size="90" font-weight="normal" fill="#AA581F">
                <tspan x="1361.63086" y="395">Rust</tspan>
            </text>
        </g>
    </g>
</svg>